PathFileType	4	(X/Y/Z)	s11c0102.trc
DataRate	CameraRate	NumFrames	NumMarkers	Units	OrigDataRate	OrigDataStartFrame	OrigNumFrames
200	200	4	48	mm	200	250	2000
Frame#	Time	racr			lacr			c7			jug			rlel			rdr			llel			ldr			s2			lic			ric			lasi			rasi			rpsi			lpsi			rgt			lgt			rth1			rth2			rth3			rth4			rlfc			rmfc			rsh1			rsh2			rsh3			rsh4			rlmal			rcal			rtoe			rmt5			lth1			lth2			lth4			lth3			llfc			lmfc			llmal			lcal			lmt5			lsh1			lsh2			lsh3			lsh4			ltoe			SBIKE			LBIKE			RBIKE			
		X1	Y1	Z1	X2	Y2	Z2	X3	Y3	Z3	X4	Y4	Z4	X5	Y5	Z5	X6	Y6	Z6	X7	Y7	Z7	X8	Y8	Z8	X9	Y9	Z9	X10	Y10	Z10	X11	Y11	Z11	X12	Y12	Z12	X13	Y13	Z13	X14	Y14	Z14	X15	Y15	Z15	X16	Y16	Z16	X17	Y17	Z17	X18	Y18	Z18	X19	Y19	Z19	X20	Y20	Z20	X21	Y21	Z21	X22	Y22	Z22	X23	Y23	Z23	X24	Y24	Z24	X25	Y25	Z25	X26	Y26	Z26	X27	Y27	Z27	X28	Y28	Z28	X29	Y29	Z29	X30	Y30	Z30	X31	Y31	Z31	X32	Y32	Z32	X33	Y33	Z33	X34	Y34	Z34	X35	Y35	Z35	X36	Y36	Z36	X37	Y37	Z37	X38	Y38	Z38	X39	Y39	Z39	X40	Y40	Z40	X41	Y41	Z41	X42	Y42	Z42	X43	Y43	Z43	X44	Y44	Z44	X45	Y45	Z45	X46	Y46	Z46	X47	Y47	Z47	X48	Y48	Z48	
250	1.2500	473.861602	1365.247221	-50.490634	508.143277	1354.550494	-361.937239	426.069181	1466.394931	-225.840830	437.517410	1282.880430	-224.353426	516.491663	1095.521306	28.280087	758.614103	937.084658	-69.929940	563.031155	1144.350765	-577.432298	771.337640	919.676164	-474.277586	-131.542580	1214.476911	-264.340382	89.827291	1224.343397	-463.263256	80.729230	1224.027174	-59.840779	116.650827	1151.058325	-437.766333	110.624970	1157.968990	-101.308620	-87.150962	1288.636881	-217.405327	-90.553364	1278.314803	-311.740810	46.181135	1084.714692	-52.124998	0.854316	1092.264321	-474.340288	157.868742	988.552972	-53.581540	237.619725	949.482076	-65.673699	286.250950	878.332123	-80.438299	260.402023	977.928729	-73.264559	364.445286	803.550136	-99.630473	365.363678	785.886461	-225.200073	341.744723	641.954164	-80.945755	349.465518	555.795689	-97.356059	316.534286	474.913002	-95.108916	371.791928	554.889244	-130.646656	281.466268	341.172932	-103.487634	215.770656	312.855189	-147.857578	504.064127	317.783126	-150.494094	440.156858	282.103911	-79.491993	126.239040	1007.862570	-493.295236	207.013760	978.869551	-493.237058	228.901192	1007.193658	-484.404501	264.684206	909.651423	-495.144128	362.977834	813.223714	-471.953131	379.275023	809.065062	-344.404037	57.505132	525.734066	-416.091123	-9.741226	527.664042	-378.866962	110.508432	358.825678	-448.578336	278.334625	720.286346	-483.464770	237.273906	649.713642	-458.614414	162.367606	603.601850	-448.125748	261.260510	633.508754	-432.468122	198.959143	312.550725	-385.477750	-215.048877	954.851910	-257.266762	-17.762627	80.841834	-460.967336	-17.798813	80.710380	-62.002602	
251	1.2550	476.882957	1366.259372	-52.124322	508.096541	1354.958574	-364.553702	427.194150	1467.331111	-226.970517	438.987087	1284.154366	-225.693233	517.920698	1096.703750	28.368890	758.954558	937.119969	-69.972338	560.694600	1142.721706	-577.888552	771.251948	919.643488	-474.146326	-130.651929	1215.195648	-262.588566	90.083395	1226.704009	-462.088118	82.661838	1223.186192	-58.819377	116.417778	1153.013820	-436.443771	111.749028	1157.242507	-100.253538	-86.249663	1289.265370	-214.906753	-90.005400	1279.924462	-309.767492	46.342809	1083.135385	-51.494472	2.231409	1095.551651	-474.105815	156.100476	984.985588	-52.858871	235.163843	944.397037	-65.403164	282.281688	872.396647	-80.624801	258.435713	972.499694	-72.908614	358.715532	796.242227	-100.108594	358.057112	777.565479	-224.132511	336.892390	634.727762	-81.347931	345.267073	548.493504	-97.906982	313.104556	467.505277	-95.783153	367.442439	547.795904	-131.357202	278.992774	333.620111	-103.710033	213.434658	305.225090	-148.073375	501.696541	310.464469	-150.543584	437.785312	274.571256	-79.475054	128.587657	1012.698625	-492.831673	209.688911	984.542675	-492.574943	231.201754	1013.057645	-483.379292	268.120339	916.029319	-494.861166	367.207611	820.669395	-471.918061	383.959809	816.930317	-344.449842	61.565664	533.503072	-416.462938	-5.119225	536.098993	-378.776868	113.102737	366.006276	-448.605725	282.631124	727.771126	-483.608790	241.377832	657.259681	-458.660787	166.463437	611.225896	-448.239686	265.435003	640.890603	-432.670910	201.163885	318.989903	-385.512251	-214.967506	954.946446	-257.251603	-17.757378	80.876002	-460.968348	-17.801095	80.722447	-62.007826	
252	1.2600	479.832992	1367.508523	-54.050615	507.935972	1355.457344	-367.344561	428.344557	1468.444582	-228.190590	440.558374	1285.317832	-227.169540	519.594567	1098.016900	28.414472	759.240629	937.124219	-70.116461	558.721755	1141.349782	-578.191498	771.176488	919.597445	-473.859944	-129.704336	1215.844906	-260.842534	90.415557	1229.349090	-461.175737	84.460533	1222.572847	-57.632539	116.261678	1155.053760	-435.129380	113.212159	1156.287605	-98.723629	-85.347393	1289.844819	-212.330463	-89.531970	1281.217459	-307.349660	46.467504	1081.456244	-50.824127	3.721180	1098.844420	-473.955763	154.332159	981.688280	-52.275473	232.569244	939.415358	-65.141866	278.220323	866.561347	-80.909741	256.380967	967.051748	-72.687384	352.850853	789.134261	-100.640659	348.830310	769.707334	-225.713397	331.541255	627.641336	-81.778368	341.729550	541.785262	-97.903996	309.265667	460.283116	-96.374892	362.905277	541.278951	-131.576929	275.964160	326.377758	-103.877374	210.806875	297.633688	-148.245967	499.139029	302.931838	-150.588728	435.171090	267.207846	-79.528666	130.986064	1017.555545	-492.319215	212.362564	990.322330	-491.837181	233.497983	1018.909780	-482.099276	271.635321	922.582880	-494.524803	371.569648	828.309255	-471.823995	387.017270	823.456483	-344.919761	65.826617	541.198013	-416.739643	-0.843357	544.197074	-378.932468	116.031058	373.018856	-448.483202	286.910681	735.402356	-483.487075	245.602934	664.840576	-458.654164	170.692721	618.773398	-448.303919	269.840904	648.460743	-433.063797	203.642064	325.342787	-385.595807	-214.884401	954.909026	-257.528630	-17.757834	80.908386	-460.971223	-17.791916	80.746243	-62.029314	
253	1.2650	482.860486	1368.504729	-56.118604	508.735829	1357.232346	-371.894762	429.355429	1469.597317	-229.594804	442.102622	1286.442066	-228.831102	521.495037	1099.362713	28.548811	759.550273	937.164140	-70.235841	557.162574	1140.269648	-578.241684	771.141282	919.595733	-473.516472	-128.783772	1216.629036	-259.066596	90.629293	1231.933681	-460.144259	86.420082	1221.764861	-56.738181	116.012066	1157.168100	-433.694779	114.220753	1155.449406	-97.605724	-84.203846	1290.635730	-209.812691	-88.938497	1282.498862	-305.000185	46.597322	1079.739066	-50.002193	5.147638	1102.093580	-473.676229	152.537331	978.057076	-51.701159	229.879508	934.420337	-64.925582	273.961073	860.900830	-81.131914	254.070155	961.279211	-73.121748	346.770295	782.161028	-101.130479	343.050617	761.348175	-224.516547	325.946588	620.835400	-82.061475	336.815587	535.104249	-98.105831	305.024445	453.205464	-96.697707	357.929266	534.750313	-131.786982	273.082582	318.889613	-103.873380	207.892529	290.414265	-148.281026	496.192560	295.579219	-150.490808	432.175846	259.886721	-79.611553	133.363138	1022.467618	-491.778607	215.049488	996.243670	-491.092928	235.789537	1024.971768	-480.935419	275.108740	929.231212	-494.193005	375.851653	836.101184	-471.669658	391.016321	829.982014	-344.174364	70.201529	548.819230	-417.014805	3.589064	552.171652	-379.061943	119.292687	380.129276	-448.395191	291.190430	743.164358	-483.424384	250.500455	673.109530	-459.333495	175.037709	626.402548	-448.304038	274.061375	656.041100	-432.933428	206.500155	331.767011	-385.630560	-214.831227	954.942043	-257.477749	-17.734362	80.903709	-460.954130	-17.774405	80.734056	-62.008660	
